# WaveFront *.obj file (generated by CINEMA 4D)

mtllib ./slender_room.mtl

v 189.13410949707031 -27 0.00000000000001
v 126.78028869628906 -27 0.00000000000002
v 126.78028869628906 27 0.00000000000001
v 189.13410949707031 27 0
v 94.56705474853516 -27 163.79495239257812
v 63.39014434814453 -27 109.79494476318359
v 63.39014434814453 27 109.79494476318359
v 94.56705474853516 27 163.79495239257812
v -94.56705474853516 -27 163.79495239257812
v -63.39014434814453 -27 109.79494476318359
v -63.39014434814453 27 109.79494476318359
v -94.56705474853516 27 163.79495239257812
v -189.13410949707031 -27 0.00000000000002
v -126.78028869628906 -27 0.00000000000001
v -126.78028869628906 27 0
v -189.13410949707031 27 0.00000000000001
v -94.56705474853516 -27 -163.79495239257812
v -63.39014434814453 -27 -109.79494476318359
v -63.39014434814453 27 -109.79494476318359
v -94.56705474853516 27 -163.79495239257812
v 94.56705474853516 -27 -163.79495239257812
v 63.39014434814453 -27 -109.79494476318359
v 63.39014434814453 27 -109.79494476318359
v 94.56705474853516 27 -163.79495239257812
# 24 vertices

vn 0 -1 0
vn -0.86601907014847 0 -0.50001096725464
vn 0 0 -1
vn 1 0 0
vn 0.86603260040283 0 0.49998754262924
vn 0 0 1
vn 0.86601907014847 0 -0.50001096725464
vn -0.86601907014847 0 0.50001096725464
vn -0.86603260040283 0 0.49998754262924
vn -1 0 0
vn 0.86601907014847 0 0.50001096725464
vn 0.86603260040283 0 -0.49998754262924
vn -0.86603260040283 0 -0.49998754262924
# 13 normals

vt 0 1 0
vt 0.25 1 0
vt 0.25 0.83333337306976 0
vt 0 0.83333337306976 0
vt 0.5 1 0
vt 0.5 0.83333337306976 0
vt 0.75 0.33333337306976 0
vt 1 0.33333337306976 0
vt 1 0.16666674613953 0
vt 0.75 0.16666674613953 0
vt 0.75 1 0
vt 1 1 0
vt 1 0.83333337306976 0
vt 0.75 0.83333337306976 0
vt 0.25 0.66666668653488 0
vt 0 0.66666668653488 0
vt 0.5 0.66666668653488 0
vt 0 0.16666674613953 0
vt 0.25 0.16666674613953 0
vt 0.25 0 0
vt 0 0 0
vt 1 0.66666668653488 0
vt 0.75 0.66666668653488 0
vt 0.25 0.5 0
vt 0 0.5 0
vt 0.5 0.5 0
vt 0.5 0.16666674613953 0
vt 0.5 0 0
vt 1 0.5 0
vt 0.75 0.5 0
vt 0.25 0.33333337306976 0
vt 0 0.33333337306976 0
vt 0.5 0.33333337306976 0
vt 1 0 0
vt 0.75 0 0
# 35 texture coordinates

o Sweep
usemtl default
f 5/4/1 6/3/1 2/2/1 1/1/1
f 6/3/2 7/6/2 3/5/2 2/2/2
f 24/10/3 21/9/3 17/8/3 20/7/3
f 8/14/5 5/13/5 1/12/4 4/11/4
f 9/16/1 10/15/1 6/3/1 5/4/1
f 10/15/3 11/17/3 7/6/3 6/3/3
f 1/21/1 2/20/1 22/19/1 21/18/1
f 12/23/6 9/22/6 5/13/6 8/14/6
f 13/25/1 14/24/1 10/15/1 9/16/1
f 14/24/7 15/26/7 11/17/7 10/15/7
f 2/20/8 3/28/8 23/27/8 22/19/8
f 16/30/10 13/29/10 9/22/9 12/23/9
f 17/32/1 18/31/1 14/24/1 13/25/1
f 18/31/11 19/33/11 15/26/11 14/24/11
f 4/35/4 1/34/4 21/9/12 24/10/12
f 20/7/13 17/8/13 13/29/10 16/30/10
f 21/18/1 22/19/1 18/31/1 17/32/1
f 22/19/6 23/27/6 19/33/6 18/31/6

