# WaveFront *.obj file (generated by CINEMA 4D)

mtllib ./splineZaebatiy.mtl

v 152.228759765625 5.22346782684326 -0
v 141.76963806152344 5.22346782684326 0
v 141.76963806152344 -5.22346782684326 0
v 152.228759765625 -5.22346782684326 -0
v 151.50607299804688 5.22346782684326 -14.96534061431885
v 141.09567260742188 5.22346782684326 -13.95662307739258
v 141.09567260742188 -5.22346782684326 -13.95662307739258
v 151.50607299804688 -5.22346782684326 -14.96534061431885
v 149.38148498535156 5.22346782684326 -29.52147674560547
v 139.11663818359375 5.22346782684326 -27.51552963256836
v 139.11663818359375 -5.22346782684326 -27.51552963256836
v 149.38148498535156 -5.22346782684326 -29.52147674560547
v 145.92158508300781 5.22346782684326 -43.59652328491211
v 135.89555358886719 5.22346782684326 -40.61906051635742
v 135.89555358886719 -5.22346782684326 -40.61906051635742
v 145.92158508300781 -5.22346782684326 -43.59652328491211
v 141.193603515625 5.22346782684326 -57.12062835693359
v 131.49467468261719 5.22346782684326 -53.20751571655273
v 131.49467468261719 -5.22346782684326 -53.20751571655273
v 141.193603515625 -5.22346782684326 -57.12062835693359
v 135.26513671875 5.22346782684326 -70.02507019042969
v 125.97595977783203 5.22346782684326 -65.22006988525391
v 125.97595977783203 -5.22346782684326 -65.22006988525391
v 135.26513671875 -5.22346782684326 -70.02507019042969
v 128.20379638671875 5.22346782684326 -82.24208831787109
v 119.4013671875 5.22346782684326 -76.59494018554688
v 119.4013671875 -5.22346782684326 -76.59494018554688
v 128.20379638671875 -5.22346782684326 -82.24208831787109
v 120.07692718505859 5.22346782684326 -93.70465087890625
v 111.83310699462891 5.22346782684326 -87.26961517333984
v 111.83310699462891 -5.22346782684326 -87.26961517333984
v 120.07692718505859 -5.22346782684326 -93.70465087890625
v 110.9515380859375 5.22346782684326 -104.34615325927734
v 103.33368682861328 5.22346782684326 -97.18114471435547
v 103.33368682861328 -5.22346782684326 -97.18114471435547
v 110.9515380859375 -5.22346782684326 -104.34615325927734
v 100.89431762695312 5.22346782684326 -114.10015869140625
v 93.96598815917969 5.22346782684326 -106.26641082763672
v 93.96598815917969 -5.22346782684326 -106.26641082763672
v 100.89431762695312 -5.22346782684326 -114.10015869140625
v 89.97174072265625 5.22346782684326 -122.90013122558594
v 83.79306793212891 5.22346782684326 -114.46241760253906
v 83.79306793212891 -5.22346782684326 -114.46241760253906
v 89.97174072265625 -5.22346782684326 -122.90013122558594
v 78.25028228759766 5.22346782684326 -130.67929077148438
v 72.87802124023438 5.22346782684326 -121.70638275146484
v 72.87802124023438 -5.22346782684326 -121.70638275146484
v 78.25028228759766 -5.22346782684326 -130.67929077148438
v 65.79664611816406 5.22346782684326 -137.37049865722656
v 61.28367233276367 5.22346782684326 -127.9359130859375
v 61.28367233276367 -5.22346782684326 -127.9359130859375
v 65.79664611816406 -5.22346782684326 -137.37049865722656
v 52.67807388305664 5.22346782684326 -142.90631103515625
v 49.07232666015625 5.22346782684326 -133.08889770507812
v 49.07232666015625 -5.22346782684326 -133.08889770507812
v 52.67807388305664 -5.22346782684326 -142.90631103515625
v 38.96263122558594 5.22346782684326 -147.2191162109375
v 36.30547714233398 5.22346782684326 -137.1033935546875
v 36.30547714233398 -5.22346782684326 -137.1033935546875
v 38.96263122558594 -5.22346782684326 -147.2191162109375
v 24.76013565063477 5.22346782684326 -150.22842407226562
v 23.00284385681152 5.22346782684326 -139.93035888671875
v 23.00284385681152 -5.22346782684326 -139.93035888671875
v 24.76013565063477 -5.22346782684326 -150.22842407226562
v 14.92316436767578 5.22346782684326 -151.50384521484375
v 13.99879932403564 5.22346782684326 -141.09788513183594
v 13.99879932403564 -5.22346782684326 -141.09788513183594
v 14.92316436767578 -5.22346782684326 -151.50384521484375
v 0.00000000000001 5.22346782684326 -152.228759765625
v 0.00000000000001 5.22346782684326 -141.76963806152344
v 0.00000000000001 -5.22346782684326 -141.76963806152344
v 0.00000000000001 -5.22346782684326 -152.228759765625
v -14.96534061431885 5.22346782684326 -151.50607299804688
v -13.95662307739258 5.22346782684326 -141.09567260742188
v -13.95662307739258 -5.22346782684326 -141.09567260742188
v -14.96534061431885 -5.22346782684326 -151.50607299804688
v -29.52147674560547 5.22346782684326 -149.38148498535156
v -27.51552963256836 5.22346782684326 -139.11663818359375
v -27.51552963256836 -5.22346782684326 -139.11663818359375
v -29.52147674560547 -5.22346782684326 -149.38148498535156
v -43.59652328491211 5.22346782684326 -145.92158508300781
v -40.61906051635742 5.22346782684326 -135.89555358886719
v -40.61906051635742 -5.22346782684326 -135.89555358886719
v -43.59652328491211 -5.22346782684326 -145.92158508300781
v -57.12062835693359 5.22346782684326 -141.193603515625
v -53.20751571655273 5.22346782684326 -131.49467468261719
v -53.20751571655273 -5.22346782684326 -131.49467468261719
v -57.12062835693359 -5.22346782684326 -141.193603515625
v -70.02507019042969 5.22346782684326 -135.26513671875
v -65.22006988525391 5.22346782684326 -125.97595977783203
v -65.22006988525391 -5.22346782684326 -125.97595977783203
v -70.02507019042969 -5.22346782684326 -135.26513671875
v -82.24208831787109 5.22346782684326 -128.20379638671875
v -76.59494018554688 5.22346782684326 -119.4013671875
v -76.59494018554688 -5.22346782684326 -119.4013671875
v -82.24208831787109 -5.22346782684326 -128.20379638671875
v -93.70465087890625 5.22346782684326 -120.07692718505859
v -87.26961517333984 5.22346782684326 -111.83310699462891
v -87.26961517333984 -5.22346782684326 -111.83310699462891
v -93.70465087890625 -5.22346782684326 -120.07692718505859
v -104.34615325927734 5.22346782684326 -110.9515380859375
v -97.18114471435547 5.22346782684326 -103.33368682861328
v -97.18114471435547 -5.22346782684326 -103.33368682861328
v -104.34615325927734 -5.22346782684326 -110.9515380859375
v -114.10015869140625 5.22346782684326 -100.89431762695312
v -106.26641082763672 5.22346782684326 -93.96598815917969
v -106.26641082763672 -5.22346782684326 -93.96598815917969
v -114.10015869140625 -5.22346782684326 -100.89431762695312
v -122.90013122558594 5.22346782684326 -89.97174072265625
v -114.46241760253906 5.22346782684326 -83.79306793212891
v -114.46241760253906 -5.22346782684326 -83.79306793212891
v -122.90013122558594 -5.22346782684326 -89.97174072265625
v -130.67929077148438 5.22346782684326 -78.25028228759766
v -121.70638275146484 5.22346782684326 -72.87802124023438
v -121.70638275146484 -5.22346782684326 -72.87802124023438
v -130.67929077148438 -5.22346782684326 -78.25028228759766
v -137.37049865722656 5.22346782684326 -65.79664611816406
v -127.9359130859375 5.22346782684326 -61.28367233276367
v -127.9359130859375 -5.22346782684326 -61.28367233276367
v -137.37049865722656 -5.22346782684326 -65.79664611816406
v -142.90631103515625 5.22346782684326 -52.67807388305664
v -133.08889770507812 5.22346782684326 -49.07232666015625
v -133.08889770507812 -5.22346782684326 -49.07232666015625
v -142.90631103515625 -5.22346782684326 -52.67807388305664
v -147.2191162109375 5.22346782684326 -38.96263122558594
v -137.1033935546875 5.22346782684326 -36.30547714233398
v -137.1033935546875 -5.22346782684326 -36.30547714233398
v -147.2191162109375 -5.22346782684326 -38.96263122558594
v -150.22842407226562 5.22346782684326 -24.76013565063477
v -139.93035888671875 5.22346782684326 -23.00284385681152
v -139.93035888671875 -5.22346782684326 -23.00284385681152
v -150.22842407226562 -5.22346782684326 -24.76013565063477
v -151.50384521484375 5.22346782684326 -14.92316436767578
v -141.09788513183594 5.22346782684326 -13.99879932403564
v -141.09788513183594 -5.22346782684326 -13.99879932403564
v -151.50384521484375 -5.22346782684326 -14.92316436767578
v -152.228759765625 5.22346782684326 -0.00000000000002
v -141.76963806152344 5.22346782684326 -0.00000000000002
v -141.76963806152344 -5.22346782684326 -0.00000000000002
v -152.228759765625 -5.22346782684326 -0.00000000000002
v -151.50607299804688 5.22346782684326 14.96534061431885
v -141.09567260742188 5.22346782684326 13.95662307739258
v -141.09567260742188 -5.22346782684326 13.95662307739258
v -151.50607299804688 -5.22346782684326 14.96534061431885
v -149.38148498535156 5.22346782684326 29.52147674560547
v -139.11663818359375 5.22346782684326 27.51552963256836
v -139.11663818359375 -5.22346782684326 27.51552963256836
v -149.38148498535156 -5.22346782684326 29.52147674560547
v -145.92158508300781 5.22346782684326 43.59652328491211
v -135.89555358886719 5.22346782684326 40.61906051635742
v -135.89555358886719 -5.22346782684326 40.61906051635742
v -145.92158508300781 -5.22346782684326 43.59652328491211
v -141.193603515625 5.22346782684326 57.12062835693359
v -131.49467468261719 5.22346782684326 53.20751571655273
v -131.49467468261719 -5.22346782684326 53.20751571655273
v -141.193603515625 -5.22346782684326 57.12062835693359
v -135.26513671875 5.22346782684326 70.02507019042969
v -125.97595977783203 5.22346782684326 65.22006988525391
v -125.97595977783203 -5.22346782684326 65.22006988525391
v -135.26513671875 -5.22346782684326 70.02507019042969
v -128.20379638671875 5.22346782684326 82.24208831787109
v -119.4013671875 5.22346782684326 76.59494018554688
v -119.4013671875 -5.22346782684326 76.59494018554688
v -128.20379638671875 -5.22346782684326 82.24208831787109
v -120.07692718505859 5.22346782684326 93.70465087890625
v -111.83310699462891 5.22346782684326 87.26961517333984
v -111.83310699462891 -5.22346782684326 87.26961517333984
v -120.07692718505859 -5.22346782684326 93.70465087890625
v -110.9515380859375 5.22346782684326 104.34615325927734
v -103.33368682861328 5.22346782684326 97.18114471435547
v -103.33368682861328 -5.22346782684326 97.18114471435547
v -110.9515380859375 -5.22346782684326 104.34615325927734
v -100.89431762695312 5.22346782684326 114.10015869140625
v -93.96598815917969 5.22346782684326 106.26641082763672
v -93.96598815917969 -5.22346782684326 106.26641082763672
v -100.89431762695312 -5.22346782684326 114.10015869140625
v -89.97174072265625 5.22346782684326 122.90013122558594
v -83.79306793212891 5.22346782684326 114.46241760253906
v -83.79306793212891 -5.22346782684326 114.46241760253906
v -89.97174072265625 -5.22346782684326 122.90013122558594
v -78.25028228759766 5.22346782684326 130.67929077148438
v -72.87802124023438 5.22346782684326 121.70638275146484
v -72.87802124023438 -5.22346782684326 121.70638275146484
v -78.25028228759766 -5.22346782684326 130.67929077148438
v -65.79664611816406 5.22346782684326 137.37049865722656
v -61.28367233276367 5.22346782684326 127.9359130859375
v -61.28367233276367 -5.22346782684326 127.9359130859375
v -65.79664611816406 -5.22346782684326 137.37049865722656
v -52.67807388305664 5.22346782684326 142.90631103515625
v -49.07232666015625 5.22346782684326 133.08889770507812
v -49.07232666015625 -5.22346782684326 133.08889770507812
v -52.67807388305664 -5.22346782684326 142.90631103515625
v -38.96263122558594 5.22346782684326 147.2191162109375
v -36.30547714233398 5.22346782684326 137.1033935546875
v -36.30547714233398 -5.22346782684326 137.1033935546875
v -38.96263122558594 -5.22346782684326 147.2191162109375
v -24.76013565063477 5.22346782684326 150.22842407226562
v -23.00284385681152 5.22346782684326 139.93035888671875
v -23.00284385681152 -5.22346782684326 139.93035888671875
v -24.76013565063477 -5.22346782684326 150.22842407226562
v -14.92316436767578 5.22346782684326 151.50384521484375
v -13.99879932403564 5.22346782684326 141.09788513183594
v -13.99879932403564 -5.22346782684326 141.09788513183594
v -14.92316436767578 -5.22346782684326 151.50384521484375
v -0.00000000000003 5.22346782684326 152.228759765625
v -0.00000000000003 5.22346782684326 141.76963806152344
v -0.00000000000003 -5.22346782684326 141.76963806152344
v -0.00000000000003 -5.22346782684326 152.228759765625
v 14.96534061431885 5.22346782684326 151.50607299804688
v 13.95662307739258 5.22346782684326 141.09567260742188
v 13.95662307739258 -5.22346782684326 141.09567260742188
v 14.96534061431885 -5.22346782684326 151.50607299804688
v 29.52147674560547 5.22346782684326 149.38148498535156
v 27.51552963256836 5.22346782684326 139.11663818359375
v 27.51552963256836 -5.22346782684326 139.11663818359375
v 29.52147674560547 -5.22346782684326 149.38148498535156
v 43.59652328491211 5.22346782684326 145.92158508300781
v 40.61906051635742 5.22346782684326 135.89555358886719
v 40.61906051635742 -5.22346782684326 135.89555358886719
v 43.59652328491211 -5.22346782684326 145.92158508300781
v 57.12062835693359 5.22346782684326 141.193603515625
v 53.20751571655273 5.22346782684326 131.49467468261719
v 53.20751571655273 -5.22346782684326 131.49467468261719
v 57.12062835693359 -5.22346782684326 141.193603515625
v 70.02507019042969 5.22346782684326 135.26513671875
v 65.22006988525391 5.22346782684326 125.97595977783203
v 65.22006988525391 -5.22346782684326 125.97595977783203
v 70.02507019042969 -5.22346782684326 135.26513671875
v 82.24208831787109 5.22346782684326 128.20379638671875
v 76.59494018554688 5.22346782684326 119.4013671875
v 76.59494018554688 -5.22346782684326 119.4013671875
v 82.24208831787109 -5.22346782684326 128.20379638671875
v 93.70465087890625 5.22346782684326 120.07692718505859
v 87.26961517333984 5.22346782684326 111.83310699462891
v 87.26961517333984 -5.22346782684326 111.83310699462891
v 93.70465087890625 -5.22346782684326 120.07692718505859
v 104.34615325927734 5.22346782684326 110.9515380859375
v 97.18114471435547 5.22346782684326 103.33368682861328
v 97.18114471435547 -5.22346782684326 103.33368682861328
v 104.34615325927734 -5.22346782684326 110.9515380859375
v 114.10015869140625 5.22346782684326 100.89431762695312
v 106.26641082763672 5.22346782684326 93.96598815917969
v 106.26641082763672 -5.22346782684326 93.96598815917969
v 114.10015869140625 -5.22346782684326 100.89431762695312
v 122.90013122558594 5.22346782684326 89.97174072265625
v 114.46241760253906 5.22346782684326 83.79306793212891
v 114.46241760253906 -5.22346782684326 83.79306793212891
v 122.90013122558594 -5.22346782684326 89.97174072265625
v 130.67929077148438 5.22346782684326 78.25028228759766
v 121.70638275146484 5.22346782684326 72.87802124023438
v 121.70638275146484 -5.22346782684326 72.87802124023438
v 130.67929077148438 -5.22346782684326 78.25028228759766
v 137.37049865722656 5.22346782684326 65.79664611816406
v 127.9359130859375 5.22346782684326 61.28367233276367
v 127.9359130859375 -5.22346782684326 61.28367233276367
v 137.37049865722656 -5.22346782684326 65.79664611816406
v 142.90631103515625 5.22346782684326 52.67807388305664
v 133.08889770507812 5.22346782684326 49.07232666015625
v 133.08889770507812 -5.22346782684326 49.07232666015625
v 142.90631103515625 -5.22346782684326 52.67807388305664
v 147.2191162109375 5.22346782684326 38.96263122558594
v 137.1033935546875 5.22346782684326 36.30547714233398
v 137.1033935546875 -5.22346782684326 36.30547714233398
v 147.2191162109375 -5.22346782684326 38.96263122558594
v 150.22842407226562 5.22346782684326 24.76013565063477
v 139.93035888671875 5.22346782684326 23.00284385681152
v 139.93035888671875 -5.22346782684326 23.00284385681152
v 150.22842407226562 -5.22346782684326 24.76013565063477
v 151.50384521484375 5.22346782684326 14.92316436767578
v 141.09788513183594 5.22346782684326 13.99879932403564
v 141.09788513183594 -5.22346782684326 13.99879932403564
v 151.50384521484375 -5.22346782684326 14.92316436767578
# 272 vertices

vn 0 1 0
# 1 normal

vt 0 1 0
vt 0.25 1 0
vt 0.25 0.98432600498199 0
vt 0 0.98432600498199 0
vt 0 0.25 0
vt 0.25 0.25 0
vt 0.25 0.23432600498199 0
vt 0 0.23432600498199 0
vt 0 0.75 0
vt 0.25 0.75 0
vt 0.25 0.73432606458664 0
vt 0 0.73432606458664 0
vt 0 0.5 0
vt 0.25 0.5 0
vt 0.25 0.48432600498199 0
vt 0 0.48432600498199 0
vt 0.25 0.96894586086273 0
vt 0 0.96894586086273 0
vt 0 0.04117846488953 0
vt 0.25 0.04117846488953 0
vt 0.25 0.02595818042755 0
vt 0 0.02595818042755 0
vt 0.25 0.71894586086273 0
vt 0 0.71894586086273 0
vt 0 0.15922868251801 0
vt 0.25 0.15922868251801 0
vt 0.25 0.14453947544098 0
vt 0 0.14453947544098 0
vt 0.25 0.95379585027695 0
vt 0 0.95379585027695 0
vt 0 0.3652355670929 0
vt 0.25 0.3652355670929 0
vt 0.25 0.35057139396667 0
vt 0 0.35057139396667 0
vt 0.25 0.70379585027695 0
vt 0 0.70379585027695 0
vt 0.25 0.46894586086273 0
vt 0 0.46894586086273 0
vt 0.25 0.93882203102112 0
vt 0 0.93882203102112 0
vt 0.25 0.21894586086273 0
vt 0 0.21894586086273 0
vt 0.25 0.68882203102112 0
vt 0 0.68882203102112 0
vt 0.25 0.33586502075195 0
vt 0 0.33586502075195 0
vt 0.25 0.92397892475128 0
vt 0 0.92397892475128 0
vt 0.25 0.67397892475128 0
vt 0 0.67397892475128 0
vt 0.25 0.12988340854645 0
vt 0 0.12988340854645 0
vt 0.25 0.45379590988159 0
vt 0 0.45379590988159 0
vt 0.25 0.90922868251801 0
vt 0 0.90922868251801 0
vt 0 0.07108771800995 0
vt 0.25 0.07108771800995 0
vt 0.25 0.05620563030243 0
vt 0 0.05620563030243 0
vt 0.25 0.65922874212265 0
vt 0 0.65922874212265 0
vt 0.25 0.32108771800995 0
vt 0 0.32108771800995 0
vt 0.25 0.89453941583633 0
vt 0 0.89453941583633 0
vt 0.25 0.20379590988159 0
vt 0 0.20379590988159 0
vt 0.25 0.64453941583633 0
vt 0 0.64453941583633 0
vt 0.25 0.43882203102112 0
vt 0 0.43882203102112 0
vt 0.25 0.87988340854645 0
vt 0 0.87988340854645 0
vt 0.25 0.01567399501801 0
vt 0 0.01567399501801 0
vt 0.25 0.62988346815109 0
vt 0 0.62988346815109 0
vt 0.25 0.1152355670929 0
vt 0 0.1152355670929 0
vt 0.25 0.8652355670929 0
vt 0 0.8652355670929 0
vt 0.25 0.30620563030243 0
vt 0 0.30620563030243 0
vt 0.25 0.6152355670929 0
vt 0 0.6152355670929 0
vt 0.25 0.42397892475128 0
vt 0 0.42397892475128 0
vt 0.25 0.85057139396667 0
vt 0 0.85057139396667 0
vt 0.25 0.18882203102112 0
vt 0 0.18882203102112 0
vt 0.25 0.60057139396667 0
vt 0 0.60057139396667 0
vt 0.25 0.29117846488953 0
vt 0 0.29117846488953 0
vt 0.25 0.83586502075195 0
vt 0 0.83586502075195 0
vt 0.25 0.58586502075195 0
vt 0 0.58586502075195 0
vt 0.25 0.10057139396667 0
vt 0 0.10057139396667 0
vt 0.25 0.40922868251801 0
vt 0 0.40922868251801 0
vt 0.25 0.8210876584053 0
vt 0 0.8210876584053 0
vt 0.25 0.5710876584053 0
vt 0 0.5710876584053 0
vt 0.25 0.27595818042755 0
vt 0 0.27595818042755 0
vt 0.25 0.80620551109314 0
vt 0 0.80620551109314 0
vt 0.25 0.17397892475128 0
vt 0 0.17397892475128 0
vt 0.25 0.55620557069778 0
vt 0 0.55620557069778 0
vt 0.25 0.39453947544098 0
vt 0 0.39453947544098 0
vt 0.25 0.79117846488953 0
vt 0 0.79117846488953 0
vt 0.25 0 0
vt 0 0 0
vt 0.25 0.54117846488953 0
vt 0 0.54117846488953 0
vt 0.25 0.08586502075195 0
vt 0 0.08586502075195 0
vt 0.25 0.77595818042755 0
vt 0 0.77595818042755 0
vt 0.25 0.26567399501801 0
vt 0 0.26567399501801 0
vt 0.25 0.52595818042755 0
vt 0 0.52595818042755 0
vt 0.25 0.37988340854645 0
vt 0 0.37988340854645 0
vt 0.25 0.76567399501801 0
vt 0 0.76567399501801 0
vt 0.25 0.51567399501801 0
vt 0 0.51567399501801 0
# 138 texture coordinates

o Sweep
usemtl default
f 5/4/1 6/3/1 2/2/1 1/1/1
f 209/8/1 210/7/1 206/6/1 205/5/1
f 73/12/1 74/11/1 70/10/1 69/9/1
f 141/16/1 142/15/1 138/14/1 137/13/1
f 9/18/1 10/17/1 6/3/1 5/4/1
f 265/22/1 266/21/1 262/20/1 261/19/1
f 77/24/1 78/23/1 74/11/1 73/12/1
f 233/28/1 234/27/1 230/26/1 229/25/1
f 13/30/1 14/29/1 10/17/1 9/18/1
f 177/34/1 178/33/1 174/32/1 173/31/1
f 81/36/1 82/35/1 78/23/1 77/24/1
f 145/38/1 146/37/1 142/15/1 141/16/1
f 17/40/1 18/39/1 14/29/1 13/30/1
f 213/42/1 214/41/1 210/7/1 209/8/1
f 85/44/1 86/43/1 82/35/1 81/36/1
f 181/46/1 182/45/1 178/33/1 177/34/1
f 21/48/1 22/47/1 18/39/1 17/40/1
f 89/50/1 90/49/1 86/43/1 85/44/1
f 237/52/1 238/51/1 234/27/1 233/28/1
f 149/54/1 150/53/1 146/37/1 145/38/1
f 25/56/1 26/55/1 22/47/1 21/48/1
f 257/60/1 258/59/1 254/58/1 253/57/1
f 93/62/1 94/61/1 90/49/1 89/50/1
f 185/64/1 186/63/1 182/45/1 181/46/1
f 29/66/1 30/65/1 26/55/1 25/56/1
f 217/68/1 218/67/1 214/41/1 213/42/1
f 97/70/1 98/69/1 94/61/1 93/62/1
f 153/72/1 154/71/1 150/53/1 149/54/1
f 33/74/1 34/73/1 30/65/1 29/66/1
f 269/76/1 270/75/1 266/21/1 265/22/1
f 101/78/1 102/77/1 98/69/1 97/70/1
f 241/80/1 242/79/1 238/51/1 237/52/1
f 37/82/1 38/81/1 34/73/1 33/74/1
f 189/84/1 190/83/1 186/63/1 185/64/1
f 105/86/1 106/85/1 102/77/1 101/78/1
f 157/88/1 158/87/1 154/71/1 153/72/1
f 41/90/1 42/89/1 38/81/1 37/82/1
f 221/92/1 222/91/1 218/67/1 217/68/1
f 109/94/1 110/93/1 106/85/1 105/86/1
f 193/96/1 194/95/1 190/83/1 189/84/1
f 45/98/1 46/97/1 42/89/1 41/90/1
f 113/100/1 114/99/1 110/93/1 109/94/1
f 245/102/1 246/101/1 242/79/1 241/80/1
f 161/104/1 162/103/1 158/87/1 157/88/1
f 49/106/1 50/105/1 46/97/1 45/98/1
f 261/19/1 262/20/1 258/59/1 257/60/1
f 117/108/1 118/107/1 114/99/1 113/100/1
f 197/110/1 198/109/1 194/95/1 193/96/1
f 53/112/1 54/111/1 50/105/1 49/106/1
f 225/114/1 226/113/1 222/91/1 221/92/1
f 121/116/1 122/115/1 118/107/1 117/108/1
f 165/118/1 166/117/1 162/103/1 161/104/1
f 57/120/1 58/119/1 54/111/1 53/112/1
f 1/122/1 2/121/1 270/75/1 269/76/1
f 125/124/1 126/123/1 122/115/1 121/116/1
f 249/126/1 250/125/1 246/101/1 245/102/1
f 61/128/1 62/127/1 58/119/1 57/120/1
f 201/130/1 202/129/1 198/109/1 197/110/1
f 129/132/1 130/131/1 126/123/1 125/124/1
f 169/134/1 170/133/1 166/117/1 165/118/1
f 65/136/1 66/135/1 62/127/1 61/128/1
f 229/25/1 230/26/1 226/113/1 225/114/1
f 133/138/1 134/137/1 130/131/1 129/132/1
f 205/5/1 206/6/1 202/129/1 201/130/1
f 69/9/1 70/10/1 66/135/1 65/136/1
f 137/13/1 138/14/1 134/137/1 133/138/1
f 253/57/1 254/58/1 250/125/1 249/126/1
f 173/31/1 174/32/1 170/133/1 169/134/1

